<?xml version="1.0" encoding="UTF-8" standalone="no"?>
<!DOCTYPE svg PUBLIC "-//W3C//DTD SVG 1.1//EN"
 "http://www.w3.org/Graphics/SVG/1.1/DTD/svg11.dtd">
<!-- Generated by graphviz version 2.50.0 (0)
 -->
<!-- Title: cluster0 Pages: 1 -->
<svg width="372pt" height="220pt"
 viewBox="0.00 0.00 372.00 220.00" xmlns="http://www.w3.org/2000/svg" xmlns:xlink="http://www.w3.org/1999/xlink">
<g id="graph0" class="graph" transform="scale(1 1) rotate(0) translate(4 216)">
<title>cluster0</title>
<polygon fill="white" stroke="transparent" points="-4,4 -4,-216 368,-216 368,4 -4,4"/>
<g id="clust1" class="cluster">
<title>cluster1</title>
<polygon fill="none" stroke="transparent" points="64,-8 64,-204 206,-204 206,-8 64,-8"/>
</g>
<g id="clust2" class="cluster">
<title>cluster2</title>
<polygon fill="none" stroke="transparent" points="214,-80 214,-204 356,-204 356,-80 214,-80"/>
</g>
<!-- 1_1 -->
<g id="node1" class="node">
<title>1_1</title>
<text text-anchor="middle" x="27" y="-174.3" font-family="Times,serif" font-size="14.00">S</text>
</g>
<!-- 1_2 -->
<g id="node2" class="node">
<title>1_2</title>
<text text-anchor="middle" x="27" y="-102.3" font-family="Times,serif" font-size="14.00">x</text>
</g>
<!-- 1_1&#45;&gt;1_2 -->
<g id="edge1" class="edge">
<title>1_1&#45;&gt;1_2</title>
<path fill="none" stroke="black" d="M27,-159.7C27,-148.85 27,-134.92 27,-124.1"/>
</g>
<!-- 3 -->
<g id="node3" class="node">
<title>3</title>
<text text-anchor="middle" x="135" y="-174.3" font-family="Times,serif" font-size="14.00">S</text>
</g>
<!-- 4 -->
<g id="node4" class="node">
<title>4</title>
<text text-anchor="middle" x="99" y="-102.3" font-family="Times,serif" font-size="14.00">S</text>
</g>
<!-- 3&#45;&gt;4 -->
<g id="edge2" class="edge">
<title>3&#45;&gt;4</title>
<path fill="none" stroke="black" d="M126.1,-159.7C120.52,-148.85 113.36,-134.92 107.8,-124.1"/>
</g>
<!-- 5 -->
<g id="node5" class="node">
<title>5</title>
<text text-anchor="middle" x="171" y="-102.3" font-family="Times,serif" font-size="14.00">S</text>
</g>
<!-- 3&#45;&gt;5 -->
<g id="edge3" class="edge">
<title>3&#45;&gt;5</title>
<path fill="none" stroke="black" d="M143.9,-159.7C149.48,-148.85 156.64,-134.92 162.2,-124.1"/>
</g>
<!-- 6 -->
<g id="node6" class="node">
<title>6</title>
<text text-anchor="middle" x="99" y="-30.3" font-family="Times,serif" font-size="14.00">x</text>
</g>
<!-- 4&#45;&gt;6 -->
<g id="edge4" class="edge">
<title>4&#45;&gt;6</title>
<path fill="none" stroke="black" d="M99,-87.7C99,-76.85 99,-62.92 99,-52.1"/>
</g>
<!-- 7 -->
<g id="node7" class="node">
<title>7</title>
<text text-anchor="middle" x="171" y="-30.3" font-family="Times,serif" font-size="14.00">x</text>
</g>
<!-- 5&#45;&gt;7 -->
<g id="edge5" class="edge">
<title>5&#45;&gt;7</title>
<path fill="none" stroke="black" d="M171,-87.7C171,-76.85 171,-62.92 171,-52.1"/>
</g>
<!-- 3_1 -->
<g id="node8" class="node">
<title>3_1</title>
<text text-anchor="middle" x="285" y="-174.3" font-family="Times,serif" font-size="14.00">S</text>
</g>
<!-- 3_2 -->
<g id="node9" class="node">
<title>3_2</title>
<text text-anchor="middle" x="249" y="-102.3" font-family="Times,serif" font-size="14.00">t_h</text>
</g>
<!-- 3_1&#45;&gt;3_2 -->
<g id="edge6" class="edge">
<title>3_1&#45;&gt;3_2</title>
<path fill="none" stroke="black" d="M276.1,-159.7C270.52,-148.85 263.36,-134.92 257.8,-124.1"/>
</g>
<!-- 3_3 -->
<g id="node10" class="node">
<title>3_3</title>
<text text-anchor="middle" x="321" y="-102.3" font-family="Times,serif" font-size="14.00">t_h</text>
</g>
<!-- 3_1&#45;&gt;3_3 -->
<g id="edge7" class="edge">
<title>3_1&#45;&gt;3_3</title>
<path fill="none" stroke="black" d="M293.9,-159.7C299.48,-148.85 306.64,-134.92 312.2,-124.1"/>
</g>
</g>
</svg>
